<svg xmlns="http://www.w3.org/2000/svg" xmlns:xlink="http://www.w3.org/1999/xlink" width="500" zoomAndPan="magnify" viewBox="0 0 375 374.999991" height="500" preserveAspectRatio="xMidYMid meet" version="1.0"><defs><g/><clipPath id="6e6a01830f"><path d="M 71.53125 53.609375 L 115.140625 53.609375 L 115.140625 91.914062 L 71.53125 91.914062 Z M 71.53125 53.609375 " clip-rule="nonzero"/></clipPath><clipPath id="cc31b113f2"><path d="M 49.683594 91.84375 L 93.292969 91.84375 L 93.292969 130.148438 L 49.683594 130.148438 Z M 49.683594 91.84375 " clip-rule="nonzero"/></clipPath><clipPath id="b6e09e9ece"><path d="M 71.53125 130.074219 L 115.140625 130.074219 L 115.140625 168.378906 L 71.53125 168.378906 Z M 71.53125 130.074219 " clip-rule="nonzero"/></clipPath><clipPath id="335a575962"><path d="M 93.378906 168.308594 L 136.988281 168.308594 L 136.988281 206.613281 L 93.378906 206.613281 Z M 93.378906 168.308594 " clip-rule="nonzero"/></clipPath><clipPath id="d499d8380c"><path d="M 93.464844 53.535156 L 137.070312 53.535156 L 137.070312 91.839844 L 93.464844 91.839844 Z M 93.464844 53.535156 " clip-rule="nonzero"/></clipPath><clipPath id="d843e47135"><path d="M 71.617188 91.769531 L 115.222656 91.769531 L 115.222656 130.074219 L 71.617188 130.074219 Z M 71.617188 91.769531 " clip-rule="nonzero"/></clipPath><clipPath id="5f4cd83a11"><path d="M 49.769531 130.003906 L 93.375 130.003906 L 93.375 168.308594 L 49.769531 168.308594 Z M 49.769531 130.003906 " clip-rule="nonzero"/></clipPath><clipPath id="4c980948b4"><path d="M 71.617188 168.234375 L 115.222656 168.234375 L 115.222656 206.539062 L 71.617188 206.539062 Z M 71.617188 168.234375 " clip-rule="nonzero"/></clipPath><clipPath id="3ea687e846"><path d="M 37.625 168.457031 L 81.234375 168.457031 L 81.234375 206.761719 L 37.625 206.761719 Z M 37.625 168.457031 " clip-rule="nonzero"/></clipPath><clipPath id="15ddecf3e3"><path d="M 59.472656 206.691406 L 103.082031 206.691406 L 103.082031 244.996094 L 59.472656 244.996094 Z M 59.472656 206.691406 " clip-rule="nonzero"/></clipPath><clipPath id="905afc840b"><path d="M 37.625 244.925781 L 81.234375 244.925781 L 81.234375 283.230469 L 37.625 283.230469 Z M 37.625 244.925781 " clip-rule="nonzero"/></clipPath><clipPath id="8ff61155dd"><path d="M 15.78125 283.15625 L 59.386719 283.15625 L 59.386719 321.460938 L 15.78125 321.460938 Z M 15.78125 283.15625 " clip-rule="nonzero"/></clipPath><clipPath id="aff3d3b997"><path d="M 15.863281 168.382812 L 59.472656 168.382812 L 59.472656 206.6875 L 15.863281 206.6875 Z M 15.863281 168.382812 " clip-rule="nonzero"/></clipPath><clipPath id="b2d9d13fbb"><path d="M 37.710938 206.617188 L 81.320312 206.617188 L 81.320312 244.921875 L 37.710938 244.921875 Z M 37.710938 206.617188 " clip-rule="nonzero"/></clipPath><clipPath id="e348d7c8ad"><path d="M 59.558594 244.851562 L 103.167969 244.851562 L 103.167969 283.15625 L 59.558594 283.15625 Z M 59.558594 244.851562 " clip-rule="nonzero"/></clipPath><clipPath id="f3358100f4"><path d="M 37.710938 283.082031 L 81.320312 283.082031 L 81.320312 321.390625 L 37.710938 321.390625 Z M 37.710938 283.082031 " clip-rule="nonzero"/></clipPath></defs><g clip-path="url(#6e6a01830f)"><path fill="#1c60ab" d="M 93.335938 53.609375 L 115.140625 91.914062 L 71.53125 91.914062 L 93.335938 53.609375 " fill-opacity="1" fill-rule="nonzero"/></g><g clip-path="url(#cc31b113f2)"><path fill="#9bacd6" d="M 71.488281 91.84375 L 93.292969 130.148438 L 49.683594 130.148438 L 71.488281 91.84375 " fill-opacity="1" fill-rule="nonzero"/></g><g clip-path="url(#b6e09e9ece)"><path fill="#7993ca" d="M 93.335938 130.078125 L 115.140625 168.378906 L 71.53125 168.378906 L 93.335938 130.078125 " fill-opacity="1" fill-rule="nonzero"/></g><g clip-path="url(#335a575962)"><path fill="#1c60ab" d="M 115.183594 168.308594 L 136.988281 206.613281 L 93.378906 206.613281 L 115.183594 168.308594 " fill-opacity="1" fill-rule="nonzero"/></g><g clip-path="url(#d499d8380c)"><path fill="#9bacd6" d="M 115.265625 91.839844 L 93.464844 53.535156 L 137.070312 53.535156 L 115.265625 91.839844 " fill-opacity="1" fill-rule="nonzero"/></g><g clip-path="url(#d843e47135)"><path fill="#7993ca" d="M 93.417969 130.074219 L 71.617188 91.769531 L 115.222656 91.769531 L 93.417969 130.074219 " fill-opacity="1" fill-rule="nonzero"/></g><g clip-path="url(#5f4cd83a11)"><path fill="#1c60ab" d="M 71.570312 168.304688 L 49.769531 130.003906 L 93.375 130.003906 L 71.570312 168.304688 " fill-opacity="1" fill-rule="nonzero"/></g><g clip-path="url(#4c980948b4)"><path fill="#9bacd6" d="M 93.417969 206.539062 L 71.617188 168.234375 L 115.222656 168.234375 L 93.417969 206.539062 " fill-opacity="1" fill-rule="nonzero"/></g><g clip-path="url(#3ea687e846)"><path fill="#9bacd6" d="M 59.429688 168.457031 L 81.234375 206.761719 L 37.625 206.761719 L 59.429688 168.457031 " fill-opacity="1" fill-rule="nonzero"/></g><g clip-path="url(#15ddecf3e3)"><path fill="#1c60ab" d="M 81.277344 206.691406 L 103.082031 244.996094 L 59.472656 244.996094 L 81.277344 206.691406 " fill-opacity="1" fill-rule="nonzero"/></g><g clip-path="url(#905afc840b)"><path fill="#7993ca" d="M 59.429688 244.925781 L 81.234375 283.230469 L 37.625 283.230469 L 59.429688 244.925781 " fill-opacity="1" fill-rule="nonzero"/></g><g clip-path="url(#8ff61155dd)"><path fill="#9bacd6" d="M 37.582031 283.15625 L 59.386719 321.460938 L 15.78125 321.460938 L 37.582031 283.15625 " fill-opacity="1" fill-rule="nonzero"/></g><g clip-path="url(#aff3d3b997)"><path fill="#1c60ab" d="M 37.667969 206.6875 L 15.863281 168.382812 L 59.472656 168.382812 L 37.667969 206.6875 " fill-opacity="1" fill-rule="nonzero"/></g><g clip-path="url(#b2d9d13fbb)"><path fill="#7993ca" d="M 59.515625 244.921875 L 37.710938 206.617188 L 81.320312 206.617188 L 59.515625 244.921875 " fill-opacity="1" fill-rule="nonzero"/></g><g clip-path="url(#e348d7c8ad)"><path fill="#9bacd6" d="M 81.363281 283.15625 L 59.558594 244.851562 L 103.167969 244.851562 L 81.363281 283.15625 " fill-opacity="1" fill-rule="nonzero"/></g><g clip-path="url(#f3358100f4)"><path fill="#1c60ab" d="M 59.515625 321.386719 L 37.710938 283.085938 L 81.320312 283.085938 L 59.515625 321.386719 " fill-opacity="1" fill-rule="nonzero"/></g><g fill="#1c60ab" fill-opacity="0.4"><g transform="translate(117.557407, 195.125693)"><g><path d="M 67.132812 1.277344 C 100.144531 1.277344 127.09375 -23.28125 127.09375 -58.523438 C 127.09375 -93.765625 100.144531 -118.320312 67.132812 -118.320312 C 34.285156 -118.320312 7.335938 -93.765625 7.335938 -58.523438 C 7.335938 -23.28125 34.285156 1.277344 67.132812 1.277344 Z M 67.132812 -19.933594 C 47.203125 -19.933594 30.457031 -33.328125 30.457031 -58.523438 C 30.457031 -83.71875 47.203125 -97.113281 67.132812 -97.113281 C 87.066406 -97.113281 103.652344 -83.71875 103.652344 -58.523438 C 103.652344 -33.328125 87.066406 -19.933594 67.132812 -19.933594 Z M 67.132812 -19.933594 "/></g></g></g><g fill="#1c60ab" fill-opacity="0.4"><g transform="translate(235.558909, 195.125693)"><g><path d="M 50.710938 0 C 71.441406 0 98.707031 -2.550781 98.707031 -31.894531 C 98.707031 -49.433594 86.90625 -58.683594 71.121094 -60.914062 C 87.707031 -62.667969 96.15625 -72.554688 96.15625 -87.386719 C 96.15625 -115.292969 71.28125 -117.046875 50.550781 -117.046875 L 12.4375 -117.046875 L 12.4375 0 Z M 34.605469 -98.070312 L 50.390625 -98.070312 C 63.625 -98.070312 72.238281 -96.636719 72.238281 -84.195312 C 72.238281 -72.714844 63.308594 -69.84375 51.824219 -69.84375 L 34.605469 -69.84375 Z M 34.605469 -50.867188 L 49.753906 -50.867188 C 63.308594 -50.867188 74.789062 -48.316406 74.789062 -35.082031 C 74.789062 -21.207031 64.421875 -19.136719 50.710938 -19.136719 L 34.605469 -19.136719 Z M 34.605469 -50.867188 "/></g></g></g><g fill="#1c60ab" fill-opacity="0.4"><g transform="translate(324.857221, 195.125693)"><g><path d="M 23.601562 -130.121094 C 29.980469 -130.121094 35.402344 -134.746094 35.402344 -141.125 C 35.402344 -147.503906 29.980469 -152.128906 23.601562 -152.128906 C 17.382812 -152.128906 11.960938 -147.503906 12.121094 -141.125 C 12.277344 -134.746094 17.382812 -130.121094 23.601562 -130.121094 Z M 12.4375 0 L 34.605469 0 L 34.605469 -117.046875 L 12.4375 -117.046875 Z M 12.4375 0 "/></g></g></g><g fill="#1c60ab" fill-opacity="1"><g transform="translate(110.509911, 188.078199)"><g><path d="M 67.132812 1.277344 C 100.144531 1.277344 127.09375 -23.28125 127.09375 -58.523438 C 127.09375 -93.765625 100.144531 -118.320312 67.132812 -118.320312 C 34.285156 -118.320312 7.335938 -93.765625 7.335938 -58.523438 C 7.335938 -23.28125 34.285156 1.277344 67.132812 1.277344 Z M 67.132812 -19.933594 C 47.203125 -19.933594 30.457031 -33.328125 30.457031 -58.523438 C 30.457031 -83.71875 47.203125 -97.113281 67.132812 -97.113281 C 87.066406 -97.113281 103.652344 -83.71875 103.652344 -58.523438 C 103.652344 -33.328125 87.066406 -19.933594 67.132812 -19.933594 Z M 67.132812 -19.933594 "/></g></g></g><g fill="#1c60ab" fill-opacity="1"><g transform="translate(228.511412, 188.078199)"><g><path d="M 50.710938 0 C 71.441406 0 98.707031 -2.550781 98.707031 -31.894531 C 98.707031 -49.433594 86.90625 -58.683594 71.121094 -60.914062 C 87.707031 -62.667969 96.15625 -72.554688 96.15625 -87.386719 C 96.15625 -115.292969 71.28125 -117.046875 50.550781 -117.046875 L 12.4375 -117.046875 L 12.4375 0 Z M 34.605469 -98.070312 L 50.390625 -98.070312 C 63.625 -98.070312 72.238281 -96.636719 72.238281 -84.195312 C 72.238281 -72.714844 63.308594 -69.84375 51.824219 -69.84375 L 34.605469 -69.84375 Z M 34.605469 -50.867188 L 49.753906 -50.867188 C 63.308594 -50.867188 74.789062 -48.316406 74.789062 -35.082031 C 74.789062 -21.207031 64.421875 -19.136719 50.710938 -19.136719 L 34.605469 -19.136719 Z M 34.605469 -50.867188 "/></g></g></g><g fill="#1c60ab" fill-opacity="1"><g transform="translate(317.809724, 188.078199)"><g><path d="M 23.601562 -130.121094 C 29.980469 -130.121094 35.402344 -134.746094 35.402344 -141.125 C 35.402344 -147.503906 29.980469 -152.128906 23.601562 -152.128906 C 17.382812 -152.128906 11.960938 -147.503906 12.121094 -141.125 C 12.277344 -134.746094 17.382812 -130.121094 23.601562 -130.121094 Z M 12.4375 0 L 34.605469 0 L 34.605469 -117.046875 L 12.4375 -117.046875 Z M 12.4375 0 "/></g></g></g><g fill="#1c60ab" fill-opacity="0.4"><g transform="translate(92.547396, 321.055397)"><g><path d="M 67.433594 -30.765625 C 67.085938 -54.476562 53.667969 -64.308594 36.664062 -64.308594 C 18.507812 -64.308594 5.089844 -52.859375 4.972656 -32.269531 C 4.859375 -10.988281 19.085938 0.925781 39.441406 0.925781 C 50.199219 0.925781 56.445312 -1.851562 61.300781 -4.972656 L 61.300781 -19.316406 C 57.253906 -16.078125 49.96875 -12.839844 40.597656 -12.839844 C 31.691406 -12.839844 23.59375 -16.308594 21.28125 -26.371094 L 67.433594 -26.371094 Z M 36.78125 -50.546875 C 44.644531 -50.546875 50.3125 -47.304688 52.046875 -37.820312 L 21.050781 -37.820312 C 22.4375 -46.382812 27.644531 -50.546875 36.78125 -50.546875 Z M 36.78125 -50.546875 "/></g></g></g><g fill="#1c60ab" fill-opacity="0.4"><g transform="translate(153.037248, 321.055397)"><g><path d="M 6.128906 -4.972656 C 12.722656 -1.273438 19.894531 0.925781 28.570312 0.925781 C 44.414062 0.925781 53.089844 -5.4375 53.089844 -18.042969 C 53.089844 -27.527344 46.613281 -32.386719 33.425781 -37.707031 C 24.636719 -41.292969 21.167969 -43.605469 21.167969 -46.613281 C 21.167969 -49.851562 24.867188 -50.777344 28.800781 -50.777344 C 34.816406 -50.777344 42.679688 -48.578125 49.386719 -44.992188 L 49.386719 -59.105469 C 44.414062 -62.113281 35.625 -64.425781 28.335938 -64.308594 C 14.457031 -64.078125 5.320312 -58.292969 5.320312 -46.035156 C 5.320312 -36.664062 12.261719 -31.230469 22.902344 -26.949219 C 34.699219 -22.324219 37.359375 -20.472656 37.359375 -17.234375 C 37.359375 -13.765625 34.238281 -12.605469 28.335938 -12.605469 C 21.746094 -12.605469 12.953125 -14.921875 6.128906 -19.429688 Z M 6.128906 -4.972656 "/></g></g></g><g fill="#1c60ab" fill-opacity="0.4"><g transform="translate(199.069472, 321.055397)"><g><path d="M 13.070312 -50.3125 L 13.1875 -17.582031 C 13.1875 -4.859375 20.589844 0.925781 32.269531 0.925781 C 36.78125 0.925781 43.375 -0.230469 47.652344 -3.007812 L 47.652344 -15.5 C 44.300781 -13.648438 39.441406 -12.839844 36.203125 -12.839844 C 32.964844 -12.839844 28.453125 -13.765625 28.453125 -21.859375 L 28.570312 -50.3125 L 47.421875 -50.3125 L 47.421875 -63.382812 L 28.570312 -63.382812 L 28.570312 -77.957031 L 17.117188 -77.957031 L 13.070312 -63.382812 L 1.503906 -63.382812 L 1.503906 -50.3125 Z M 13.070312 -50.3125 "/></g></g></g><g fill="#1c60ab" fill-opacity="0.4"><g transform="translate(240.012606, 321.055397)"><g><path d="M 67.433594 -30.765625 C 67.085938 -54.476562 53.667969 -64.308594 36.664062 -64.308594 C 18.507812 -64.308594 5.089844 -52.859375 4.972656 -32.269531 C 4.859375 -10.988281 19.085938 0.925781 39.441406 0.925781 C 50.199219 0.925781 56.445312 -1.851562 61.300781 -4.972656 L 61.300781 -19.316406 C 57.253906 -16.078125 49.96875 -12.839844 40.597656 -12.839844 C 31.691406 -12.839844 23.59375 -16.308594 21.28125 -26.371094 L 67.433594 -26.371094 Z M 36.78125 -50.546875 C 44.644531 -50.546875 50.3125 -47.304688 52.046875 -37.820312 L 21.050781 -37.820312 C 22.4375 -46.382812 27.644531 -50.546875 36.78125 -50.546875 Z M 36.78125 -50.546875 "/></g></g></g><g fill="#1c60ab" fill-opacity="0.4"><g transform="translate(300.502459, 321.055397)"><g><path d="M 23.828125 0 L 23.828125 -20.011719 L 30.996094 -27.179688 L 49.851562 0 L 68.011719 0 L 41.523438 -37.707031 L 67.085938 -63.382812 L 47.539062 -63.382812 L 23.828125 -38.167969 L 23.828125 -89.871094 L 8.328125 -89.871094 L 8.328125 0 Z M 23.828125 0 "/></g></g></g><g fill="#1c60ab" fill-opacity="1"><g transform="translate(87.435477, 315.943474)"><g><path d="M 67.433594 -30.765625 C 67.085938 -54.476562 53.667969 -64.308594 36.664062 -64.308594 C 18.507812 -64.308594 5.089844 -52.859375 4.972656 -32.269531 C 4.859375 -10.988281 19.085938 0.925781 39.441406 0.925781 C 50.199219 0.925781 56.445312 -1.851562 61.300781 -4.972656 L 61.300781 -19.316406 C 57.253906 -16.078125 49.96875 -12.839844 40.597656 -12.839844 C 31.691406 -12.839844 23.59375 -16.308594 21.28125 -26.371094 L 67.433594 -26.371094 Z M 36.78125 -50.546875 C 44.644531 -50.546875 50.3125 -47.304688 52.046875 -37.820312 L 21.050781 -37.820312 C 22.4375 -46.382812 27.644531 -50.546875 36.78125 -50.546875 Z M 36.78125 -50.546875 "/></g></g></g><g fill="#1c60ab" fill-opacity="1"><g transform="translate(147.92533, 315.943474)"><g><path d="M 6.128906 -4.972656 C 12.722656 -1.273438 19.894531 0.925781 28.570312 0.925781 C 44.414062 0.925781 53.089844 -5.4375 53.089844 -18.042969 C 53.089844 -27.527344 46.613281 -32.386719 33.425781 -37.707031 C 24.636719 -41.292969 21.167969 -43.605469 21.167969 -46.613281 C 21.167969 -49.851562 24.867188 -50.777344 28.800781 -50.777344 C 34.816406 -50.777344 42.679688 -48.578125 49.386719 -44.992188 L 49.386719 -59.105469 C 44.414062 -62.113281 35.625 -64.425781 28.335938 -64.308594 C 14.457031 -64.078125 5.320312 -58.292969 5.320312 -46.035156 C 5.320312 -36.664062 12.261719 -31.230469 22.902344 -26.949219 C 34.699219 -22.324219 37.359375 -20.472656 37.359375 -17.234375 C 37.359375 -13.765625 34.238281 -12.605469 28.335938 -12.605469 C 21.746094 -12.605469 12.953125 -14.921875 6.128906 -19.429688 Z M 6.128906 -4.972656 "/></g></g></g><g fill="#1c60ab" fill-opacity="1"><g transform="translate(193.957554, 315.943474)"><g><path d="M 13.070312 -50.3125 L 13.1875 -17.582031 C 13.1875 -4.859375 20.589844 0.925781 32.269531 0.925781 C 36.78125 0.925781 43.375 -0.230469 47.652344 -3.007812 L 47.652344 -15.5 C 44.300781 -13.648438 39.441406 -12.839844 36.203125 -12.839844 C 32.964844 -12.839844 28.453125 -13.765625 28.453125 -21.859375 L 28.570312 -50.3125 L 47.421875 -50.3125 L 47.421875 -63.382812 L 28.570312 -63.382812 L 28.570312 -77.957031 L 17.117188 -77.957031 L 13.070312 -63.382812 L 1.503906 -63.382812 L 1.503906 -50.3125 Z M 13.070312 -50.3125 "/></g></g></g><g fill="#1c60ab" fill-opacity="1"><g transform="translate(234.900688, 315.943474)"><g><path d="M 67.433594 -30.765625 C 67.085938 -54.476562 53.667969 -64.308594 36.664062 -64.308594 C 18.507812 -64.308594 5.089844 -52.859375 4.972656 -32.269531 C 4.859375 -10.988281 19.085938 0.925781 39.441406 0.925781 C 50.199219 0.925781 56.445312 -1.851562 61.300781 -4.972656 L 61.300781 -19.316406 C 57.253906 -16.078125 49.96875 -12.839844 40.597656 -12.839844 C 31.691406 -12.839844 23.59375 -16.308594 21.28125 -26.371094 L 67.433594 -26.371094 Z M 36.78125 -50.546875 C 44.644531 -50.546875 50.3125 -47.304688 52.046875 -37.820312 L 21.050781 -37.820312 C 22.4375 -46.382812 27.644531 -50.546875 36.78125 -50.546875 Z M 36.78125 -50.546875 "/></g></g></g><g fill="#1c60ab" fill-opacity="1"><g transform="translate(295.390541, 315.943474)"><g><path d="M 23.828125 0 L 23.828125 -20.011719 L 30.996094 -27.179688 L 49.851562 0 L 68.011719 0 L 41.523438 -37.707031 L 67.085938 -63.382812 L 47.539062 -63.382812 L 23.828125 -38.167969 L 23.828125 -89.871094 L 8.328125 -89.871094 L 8.328125 0 Z M 23.828125 0 "/></g></g></g></svg>